<svg width="2500" height="2500" viewBox="0 0 2500 2500" fill="none" xmlns="http://www.w3.org/2000/svg">
<g clip-path="url(#clip0_2_7)">
<path d="M0 500.208C0 224.066 223.858 0.208374 500 0.208374H1999.58C2275.73 0.208374 2499.58 224.066 2499.58 500.208V1999.79C2499.58 2275.93 2275.73 2499.79 1999.58 2499.79H500C223.857 2499.79 0 2275.93 0 1999.79V500.208Z" fill="#00B899"/>
<path d="M1264.79 681.345C1061.91 774.663 919.847 977.129 913.598 1213.76V1615.36H913.181C913.181 1619.52 913.598 1623.69 913.598 1627.44V2499.79H1430.18V1824.9C1600.57 1751.58 1771.37 1678.68 1941.76 1605.36V1149.18C1771.37 1226.67 1600.57 1303.74 1430.18 1381.23V1050.45C1600.57 977.129 1771.37 904.224 1941.76 830.903V374.729C1716.38 476.796 1490.58 579.278 1264.79 681.345Z" fill="white"/>
<path d="M2500 621.771C2314.2 539.285 2127.98 456.799 1942.18 374.313V830.487C2127.98 908.807 2314.2 986.711 2500 1065.03V621.771ZM2500 1396.64C2314.2 1314.16 2127.98 1231.67 1942.18 1149.18V1605.36C2127.98 1683.68 2314.2 1761.58 2500 1839.9V1396.64Z" fill="black"/>
</g>
<defs>
<clipPath id="clip0_2_7">
<rect width="2500" height="2500" rx="500" fill="white"/>
</clipPath>
</defs>
</svg>
