<svg width="2500" height="2500" viewBox="0 0 2500 2500" fill="none" xmlns="http://www.w3.org/2000/svg">
<path d="M737.151 372.407C501.642 480.731 336.737 715.757 329.484 990.437V1456.62H329C329 1461.46 329.484 1466.29 329.484 1470.64V2483.28H929.137V1699.87C1126.93 1614.75 1325.2 1530.12 1522.99 1445.01V915.48C1325.2 1005.43 1126.93 1094.89 929.137 1184.84V800.869C1126.93 715.757 1325.2 631.128 1522.99 546.016V16.4836C1261.36 134.964 999.258 253.927 737.151 372.407Z" fill="#00B899"/>
<path d="M2171 303.253C1955.32 207.502 1739.15 111.751 1523.47 16V545.533C1739.15 636.448 1955.32 726.879 2171 817.795V303.253ZM2171 1202.73C1955.32 1106.98 1739.15 1011.23 1523.47 915.48V1445.01C1739.15 1535.93 1955.32 1626.36 2171 1717.27V1202.73Z" fill="black"/>
</svg>
